<?xml version="1.0" standalone="no"?>
<!DOCTYPE svg PUBLIC "-//W3C//DTD SVG 1.1//EN" "http://www.w3.org/Graphics/SVG/1.1/DTD/svg11.dtd">
<svg width="100%" height="100%" viewBox="0 0 3250 1113" version="1.1" xmlns="http://www.w3.org/2000/svg" xmlns:xlink="http://www.w3.org/1999/xlink" xml:space="preserve" style="fill-rule:evenodd;clip-rule:evenodd;stroke-linejoin:round;stroke-miterlimit:1.41421;">
    <g transform="matrix(4.16667,0,0,4.16667,-0,-0)">
        <g transform="matrix(1,0,0,1,13.9506,17.4421)">
            <g transform="matrix(1,0,0,1,-333.255,-10.8785)">
                <path d="M374.678,151.389L402.241,148.709C403.9,157.96 407.265,164.755 412.337,169.094C417.41,173.432 424.253,175.601 432.866,175.601C441.989,175.601 448.864,173.671 453.49,169.811C458.115,165.951 460.428,161.437 460.428,156.269C460.428,152.952 459.455,150.128 457.509,147.8C455.563,145.471 452.166,143.445 447.317,141.723C443.999,140.574 436.439,138.532 424.635,135.598C409.45,131.833 398.795,127.208 392.67,121.721C384.057,114.001 379.751,104.59 379.751,93.488C379.751,86.342 381.776,79.659 385.828,73.438C389.879,67.218 395.717,62.48 403.341,59.226C410.966,55.973 420.169,54.346 430.952,54.346C448.561,54.346 461.816,58.206 470.716,65.926C479.617,73.646 484.29,83.95 484.737,96.838L456.409,98.082C455.197,90.872 452.597,85.688 448.609,82.53C444.621,79.372 438.64,77.793 430.665,77.793C422.434,77.793 415.99,79.484 411.333,82.865C408.334,85.034 406.835,87.937 406.835,91.574C406.835,94.892 408.238,97.731 411.045,100.092C414.618,103.09 423.295,106.217 437.077,109.471C450.858,112.724 461.05,116.09 467.654,119.567C474.257,123.044 479.425,127.798 483.158,133.827C486.89,139.856 488.756,147.305 488.756,156.174C488.756,164.213 486.523,171.741 482.057,178.76C477.591,185.778 471.275,190.994 463.108,194.407C454.941,197.82 444.765,199.527 432.579,199.527C414.842,199.527 401.22,195.428 391.713,187.229C382.207,179.031 376.529,167.084 374.678,151.389Z" style="fill:white;fill-rule:nonzero;"/>
            </g>
            <g transform="matrix(0.555824,1.19893e-17,2.15703e-17,0.911932,-2.16445,-12.4712)">
                <rect x="326.779" y="64.606" width="50.394" height="153.849" style="fill:white;"/>
            </g>
            <g transform="matrix(0.555824,1.19893e-17,2.15703e-17,0.911932,81.8355,-12.4712)">
                <rect x="326.779" y="64.606" width="50.394" height="153.849" style="fill:white;"/>
            </g>
            <g transform="matrix(1,0,0,1,-333.255,-10.8785)">
                <path d="M780.651,197.039L749.835,197.039L737.585,165.17L681.503,165.17L669.922,197.039L639.872,197.039L694.518,56.738L724.473,56.738L780.651,197.039ZM728.493,141.531L709.161,89.469L690.211,141.531L728.493,141.531Z" style="fill:white;fill-rule:nonzero;"/>
            </g>
            <g transform="matrix(1,0,0,1,-333.255,-10.8785)">
                <path d="M795.772,197.039L795.772,56.738L855.395,56.738C870.389,56.738 881.283,57.998 888.078,60.518C894.873,63.039 900.312,67.521 904.395,73.965C908.478,80.409 910.52,87.778 910.52,96.072C910.52,106.599 907.426,115.292 901.237,122.151C895.048,129.01 885.797,133.333 873.483,135.119C879.608,138.692 884.664,142.616 888.652,146.89C892.64,151.165 898.015,158.758 904.778,169.668L921.909,197.039L888.03,197.039L867.549,166.51C860.276,155.599 855.299,148.725 852.62,145.886C849.94,143.046 847.101,141.1 844.102,140.048C841.103,138.995 836.35,138.469 829.842,138.469L824.1,138.469L824.1,197.039L795.772,197.039ZM824.1,116.074L845.059,116.074C858.649,116.074 867.135,115.5 870.516,114.351C873.898,113.203 876.545,111.225 878.46,108.418C880.374,105.611 881.331,102.101 881.331,97.89C881.331,93.169 880.071,89.357 877.55,86.454C875.03,83.551 871.473,81.717 866.879,80.951C864.583,80.632 857.692,80.473 846.208,80.473L824.1,80.473L824.1,116.074Z" style="fill:white;fill-rule:nonzero;"/>
            </g>
            <g transform="matrix(1,0,0,1,-333.255,-10.8785)">
                <path d="M937.221,197.039L937.221,56.738L1041.25,56.738L1041.25,80.473L965.549,80.473L965.549,111.576L1035.99,111.576L1035.99,135.215L965.549,135.215L965.549,173.4L1043.93,173.4L1043.93,197.039L937.221,197.039Z" style="fill:white;fill-rule:nonzero;"/>
            </g>
            <g transform="matrix(1.09864,-3.01977e-18,-3.05404e-18,1.09864,-15.8077,-60.4921)">
                <circle cx="228.719" cy="161.187" r="18.204" style="fill:white;"/>
            </g>
        </g>
    </g>
</svg>
